<svg width="304" height="93" viewBox="0 0 304 93" fill="none" xmlns="http://www.w3.org/2000/svg">
<g clip-path="url(#clip0)">
<path d="M304 33.8L293.867 35.3403C283.733 36.9969 263.467 39.9031 243.2 44.6403C222.933 49.2031 202.667 55.5969 182.4 50.8597C162.133 46.2969 141.867 30.6031 121.6 27.6097C101.333 24.5 81.0667 33.8 60.8 43.1C40.5333 52.4 20.2667 61.7 10.1333 66.35L3.33786e-06 71V-22H10.1333C20.2667 -22 40.5333 -22 60.8 -22C81.0667 -22 101.333 -22 121.6 -22C141.867 -22 162.133 -22 182.4 -22C202.667 -22 222.933 -22 243.2 -22C263.467 -22 283.733 -22 293.867 -22H304V33.8Z" fill="#DB65A5"/>
</g>
<defs>
<clipPath id="clip0">
<rect width="304" height="93" fill="white" transform="translate(304 93) rotate(180)"/>
</clipPath>
</defs>
</svg>
