<svg width="1440" height="320" viewBox="0 0 1440 320" fill="none" xmlns="http://www.w3.org/2000/svg">
<g clip-path="url(#clip0)">
<path d="M1440 121L1392 115.7C1344 110 1248 100 1152 110.3C1056 121 960 153 864 158.3C768 164 672 142 576 137C480 132 384 142 288 163.7C192 185 96 217 48 233L0 249V-71H48C96 -71 192 -71 288 -71C384 -71 480 -71 576 -71C672 -71 768 -71 864 -71C960 -71 1056 -71 1152 -71C1248 -71 1344 -71 1392 -71H1440V121Z" fill="#FFB067"/>
</g>
<defs>
<clipPath id="clip0">
<rect width="1440" height="320" fill="white"/>
</clipPath>
</defs>
</svg>
