<svg width="398" height="80" viewBox="0 0 398 80" fill="none" xmlns="http://www.w3.org/2000/svg">
<path d="M0 61.9111L13.2667 58.9537C26.5333 56.1069 53.0667 50.0264 79.6 50.1093C106.133 50.0264 132.667 56.1069 159.2 53.0667C185.733 50.0264 212.267 38.4181 238.8 27.9982C265.333 17.6889 291.867 8.84444 318.4 4.42222C344.933 0 371.467 0 384.733 0H398V79.6H384.733C371.467 79.6 344.933 79.6 318.4 79.6C291.867 79.6 265.333 79.6 238.8 79.6C212.267 79.6 185.733 79.6 159.2 79.6C132.667 79.6 106.133 79.6 79.6 79.6C53.0667 79.6 26.5333 79.6 13.2667 79.6H0V61.9111Z" fill="#DBC86A"/>
</svg>
