<svg width="1440" height="320" viewBox="0 0 1440 320" fill="none" xmlns="http://www.w3.org/2000/svg">
<g clip-path="url(#clip0)">
<path d="M0 233.72L60 249.72C120 265.72 240 297.72 360 271.02C480 244.72 600 158.72 720 143.02C840 126.72 960 180.72 1080 201.72C1200 222.72 1320 212.72 1380 207.02L1440 201.72V361.72H1380C1320 361.72 1200 361.72 1080 361.72C960 361.72 840 361.72 720 361.72C600 361.72 480 361.72 360 361.72C240 361.72 120 361.72 60 361.72H0V233.72Z" fill="#61B7FF"/>
</g>
<defs>
<clipPath id="clip0">
<rect width="1440" height="320" fill="white"/>
</clipPath>
</defs>
</svg>
