<svg width="1440" height="320" viewBox="0 0 1440 320" fill="none" xmlns="http://www.w3.org/2000/svg">
<g clip-path="url(#clip0)">
<path d="M0 -86L65.4583 -43.6555C130.917 -1.94532 261.833 83.6953 392.75 142.375C523.667 201.055 654.583 235.945 785.5 218.5C916.417 201.055 1047.33 134.445 1178.25 100.03C1309.17 66.25 1440.08 66.25 1505.54 66.25H1571V320H1505.54C1440.08 320 1309.17 320 1178.25 320C1047.33 320 916.417 320 785.5 320C654.583 320 523.667 320 392.75 320C261.833 320 130.917 320 65.4583 320H0V-86Z" fill="#67FF6D"/>
</g>
<defs>
<clipPath id="clip0">
<rect width="1440" height="320" fill="white"/>
</clipPath>
</defs>
</svg>
