<svg width="354" height="255" viewBox="0 0 354 255" fill="none" xmlns="http://www.w3.org/2000/svg">
<path d="M198.49 187L175.2 153.17L155.31 187H117.4L156.33 125.63L116.04 67.15H155.31L177.92 100.13L197.3 67.15H235.21L196.79 127.5L237.76 187H198.49Z" fill="url(#paint0_linear)"/>
<path d="M8.79 139.3C6.63 139.3 4.85 138.56 3.45 137.08C2.05 135.6 1.35 133.74 1.35 131.5C1.35 129.26 2.03 127.4 3.39 125.92C4.75 124.44 6.58 123.7 8.88 123.7C11.18 123.7 12.97 124.54 14.25 126.22C15.53 127.88 16.07 129.84 15.87 132.1H3.51C3.51 133.6 4.04 134.85 5.1 135.85C6.16 136.85 7.39 137.35 8.79 137.35C10.95 137.35 12.51 136.41 13.47 134.53H15.63C15.25 135.91 14.47 137.05 13.29 137.95C12.11 138.85 10.61 139.3 8.79 139.3ZM8.79 125.65C7.53 125.65 6.42 126.03 5.46 126.79C4.5 127.53 3.89 128.69 3.63 130.27H13.71C13.47 128.79 12.91 127.65 12.03 126.85C11.15 126.05 10.07 125.65 8.79 125.65ZM119.436 145.27H117.336V124H119.436V126.52C119.976 125.68 120.746 125 121.746 124.48C122.766 123.96 123.846 123.7 124.986 123.7C127.086 123.7 128.856 124.46 130.296 125.98C131.736 127.5 132.456 129.34 132.456 131.5C132.456 133.66 131.736 135.5 130.296 137.02C128.856 138.54 127.086 139.3 124.986 139.3C123.846 139.3 122.766 139.04 121.746 138.52C120.746 138 119.976 137.32 119.436 136.48V145.27ZM120.786 135.67C121.826 136.79 123.156 137.35 124.776 137.35C126.396 137.35 127.716 136.79 128.736 135.67C129.776 134.53 130.296 133.14 130.296 131.5C130.296 129.86 129.776 128.48 128.736 127.36C127.716 126.22 126.396 125.65 124.776 125.65C123.156 125.65 121.826 126.22 120.786 127.36C119.766 128.48 119.256 129.86 119.256 131.5C119.256 133.14 119.766 134.53 120.786 135.67ZM234.959 119.5C234.499 119.5 234.109 119.35 233.789 119.05C233.489 118.73 233.339 118.35 233.339 117.91C233.339 117.47 233.489 117.1 233.789 116.8C234.109 116.48 234.499 116.32 234.959 116.32C235.399 116.32 235.769 116.48 236.069 116.8C236.369 117.1 236.519 117.47 236.519 117.91C236.519 118.35 236.369 118.73 236.069 119.05C235.769 119.35 235.399 119.5 234.959 119.5ZM233.879 139V124H235.979V139H233.879ZM345.214 139.3C342.954 139.3 341.084 138.55 339.604 137.05C338.124 135.53 337.384 133.68 337.384 131.5C337.384 129.32 338.124 127.48 339.604 125.98C341.084 124.46 342.954 123.7 345.214 123.7C347.034 123.7 348.624 124.21 349.984 125.23C351.344 126.23 352.254 127.53 352.714 129.13H350.434C350.074 128.09 349.424 127.25 348.484 126.61C347.544 125.97 346.454 125.65 345.214 125.65C343.534 125.65 342.164 126.22 341.104 127.36C340.064 128.48 339.544 129.86 339.544 131.5C339.544 133.14 340.064 134.53 341.104 135.67C342.164 136.79 343.534 137.35 345.214 137.35C346.454 137.35 347.544 137.03 348.484 136.39C349.424 135.75 350.074 134.91 350.434 133.87H352.714C352.254 135.47 351.344 136.78 349.984 137.8C348.624 138.8 347.034 139.3 345.214 139.3Z" fill="#90B8F8"/>
<defs>
<linearGradient id="paint0_linear" x1="114" y1="67.5" x2="240" y2="187" gradientUnits="userSpaceOnUse">
<stop stop-color="#5F85DB"/>
<stop offset="1" stop-color="#90B8F8"/>
</linearGradient>
</defs>
</svg>
